<svg width="24" height="24" viewBox="0 0 24 24" fill="none" xmlns="http://www.w3.org/2000/svg">
<path d="M12 1C5.93053 1 1 5.93054 1 12C1 18.0695 5.93053 23 12 23C18.0695 23 23 18.0695 23 12C23 5.93054 18.0695 1 12 1ZM12 6.26087C12.2537 6.26087 12.497 6.36165 12.6764 6.54103C12.8557 6.72041 12.9565 6.96371 12.9565 7.21739V11.0435H16.7826C17.0363 11.0435 17.2796 11.1443 17.459 11.3236C17.6384 11.503 17.7391 11.7463 17.7391 12C17.7391 12.2537 17.6384 12.497 17.459 12.6764C17.2796 12.8557 17.0363 12.9565 16.7826 12.9565H12.9565V16.7826C12.9565 17.0363 12.8557 17.2796 12.6764 17.459C12.497 17.6384 12.2537 17.7391 12 17.7391C11.7463 17.7391 11.503 17.6384 11.3236 17.459C11.1443 17.2796 11.0435 17.0363 11.0435 16.7826V12.9565H7.21739C6.96371 12.9565 6.72041 12.8557 6.54103 12.6764C6.36165 12.497 6.26087 12.2537 6.26087 12C6.26087 11.7463 6.36165 11.503 6.54103 11.3236C6.72041 11.1443 6.96371 11.0435 7.21739 11.0435H11.0435V7.21739C11.0435 6.96371 11.1443 6.72041 11.3236 6.54103C11.503 6.36165 11.7463 6.26087 12 6.26087Z" fill="white"/>
</svg>
